<?xml version="1.0" standalone="no"?>
<!DOCTYPE svg PUBLIC "-//W3C//DTD SVG 20010904//EN"
 "http://www.w3.org/TR/2001/REC-SVG-20010904/DTD/svg10.dtd">
<svg version="1.0" xmlns="http://www.w3.org/2000/svg"
 width="260.000000pt" height="260.000000pt" viewBox="0 0 260.000000 260.000000"
 preserveAspectRatio="xMidYMid meet">
<metadata>
Created by potrace 1.11, written by Peter Selinger 2001-2013
</metadata>
<g transform="translate(0.000000,260.000000) scale(0.100000,-0.100000)"
fill="#000000" stroke="none">
<path d="M0 2235 c0 -201 3 -365 8 -365 4 0 171 164 372 365 l365 365 -373 0
-372 0 0 -365z"/>
<path d="M557 2042 l-557 -557 0 -368 c0 -202 2 -367 5 -367 3 0 422 416 931
925 l924 925 -372 0 -373 0 -558 -558z"/>
<path d="M1112 1487 l-1112 -1112 0 -188 0 -187 188 0 187 0 1113 1113 1112
1112 0 188 0 187 -188 0 -187 0 -1113 -1113z"/>
<path d="M1673 933 c-508 -508 -923 -925 -923 -928 0 -3 168 -5 373 -5 l372 0
553 553 552 552 -2 376 -3 375 -922 -923z"/>
<path d="M2232 377 c-199 -199 -362 -365 -362 -370 0 -4 164 -7 365 -7 l365 0
0 370 c0 204 -1 370 -3 370 -1 0 -165 -163 -365 -363z"/>
</g>
</svg>
